{
    "asset" : {
        "generator" : "Khronos glTF Blender I/O v0.9.36",
        "version" : "2.0"
    },
    "scene" : 0,
    "scenes" : [
        {
            "name" : "Scene",
            "nodes" : [
                0,
                1,
                2,
                3,
                4,
                5,
                6
            ]
        }
    ],
    "nodes" : [
        {
            "mesh" : 0,
            "name" : "BoatBase",
            "rotation" : [
                0,
                0,
                -1,
                -4.371138828673793e-08
            ],
            "translation" : [
                0,
                -0.8751087188720703,
                0
            ]
        },
        {
            "mesh" : 1,
            "name" : "BoatBody",
            "scale" : [
                0.5,
                0.43636879324913025,
                1.3743902444839478
            ],
            "translation" : [
                0.00892367959022522,
                0.3919196128845215,
                0.21291275322437286
            ]
        },
        {
            "mesh" : 2,
            "name" : "Chimney",
            "scale" : [
                0.125,
                0.5,
                0.125
            ],
            "translation" : [
                0.00892367959022522,
                0.7315088510513306,
                -0.5892599821090698
            ]
        },
        {
            "mesh" : 3,
            "name" : "Chimney.001",
            "scale" : [
                0.125,
                0.5,
                0.125
            ],
            "translation" : [
                0.00892367959022522,
                0.7315088510513306,
                -0.13925999402999878
            ]
        },
        {
            "mesh" : 4,
            "name" : "Chimney.002",
            "scale" : [
                0.125,
                0.5,
                0.125
            ],
            "translation" : [
                0.00892367959022522,
                0.7315088510513306,
                0.31074023246765137
            ]
        },
        {
            "mesh" : 5,
            "name" : "Cube",
            "scale" : [
                0.5187405943870544,
                0.25,
                0.7490809559822083
            ],
            "translation" : [
                0.00892367959022522,
                0.4654483497142792,
                0.05057486891746521
            ]
        },
        {
            "mesh" : 6,
            "name" : "Cube.001",
            "scale" : [
                0.3005596995353699,
                0.25,
                0.4066693186759949
            ],
            "translation" : [
                0.00892367959022522,
                0.43517017364501953,
                1.025046944618225
            ]
        }
    ],
    "materials" : [
        {
            "doubleSided" : true,
            "name" : "BoatBaseMaterial",
            "pbrMetallicRoughness" : {
                "baseColorFactor" : [
                    0.14240027964115143,
                    0.027020329609513283,
                    0.0049645002000033855,
                    1
                ],
                "metallicFactor" : 0,
                "roughnessFactor" : 0.5
            }
        },
        {
            "doubleSided" : true,
            "name" : "BoatBodyMaterial",
            "pbrMetallicRoughness" : {
                "baseColorFactor" : [
                    1,
                    1,
                    1,
                    1
                ],
                "metallicFactor" : 0,
                "roughnessFactor" : 0.5
            }
        },
        {
            "doubleSided" : true,
            "name" : "PillarMaterial",
            "pbrMetallicRoughness" : {
                "baseColorFactor" : [
                    0,
                    0,
                    0,
                    1
                ],
                "metallicFactor" : 0,
                "roughnessFactor" : 0.5
            }
        },
        {
            "doubleSided" : true,
            "name" : "WindowMaterial",
            "pbrMetallicRoughness" : {
                "baseColorFactor" : [
                    0.5030524134635925,
                    0.7777697443962097,
                    1,
                    1
                ],
                "metallicFactor" : 0,
                "roughnessFactor" : 0.5
            }
        }
    ],
    "meshes" : [
        {
            "name" : "Cube",
            "primitives" : [
                {
                    "attributes" : {
                        "POSITION" : 0,
                        "NORMAL" : 1,
                        "TEXCOORD_0" : 2
                    },
                    "indices" : 3,
                    "material" : 0
                }
            ]
        },
        {
            "name" : "Cube.001",
            "primitives" : [
                {
                    "attributes" : {
                        "POSITION" : 4,
                        "NORMAL" : 5,
                        "TEXCOORD_0" : 6
                    },
                    "indices" : 7,
                    "material" : 1
                }
            ]
        },
        {
            "name" : "Cylinder",
            "primitives" : [
                {
                    "attributes" : {
                        "POSITION" : 8,
                        "NORMAL" : 9,
                        "TEXCOORD_0" : 10
                    },
                    "indices" : 11,
                    "material" : 2
                }
            ]
        },
        {
            "name" : "Cylinder.001",
            "primitives" : [
                {
                    "attributes" : {
                        "POSITION" : 12,
                        "NORMAL" : 13,
                        "TEXCOORD_0" : 14
                    },
                    "indices" : 11,
                    "material" : 2
                }
            ]
        },
        {
            "name" : "Cylinder.002",
            "primitives" : [
                {
                    "attributes" : {
                        "POSITION" : 15,
                        "NORMAL" : 16,
                        "TEXCOORD_0" : 17
                    },
                    "indices" : 11,
                    "material" : 2
                }
            ]
        },
        {
            "name" : "Cube.002",
            "primitives" : [
                {
                    "attributes" : {
                        "POSITION" : 18,
                        "NORMAL" : 19,
                        "TEXCOORD_0" : 20
                    },
                    "indices" : 7,
                    "material" : 3
                }
            ]
        },
        {
            "name" : "Cube.003",
            "primitives" : [
                {
                    "attributes" : {
                        "POSITION" : 21,
                        "NORMAL" : 22,
                        "TEXCOORD_0" : 23
                    },
                    "indices" : 7,
                    "material" : 3
                }
            ]
        }
    ],
    "accessors" : [
        {
            "bufferView" : 0,
            "componentType" : 5126,
            "count" : 20,
            "max" : [
                0.800000011920929,
                -0.25,
                2
            ],
            "min" : [
                -0.800000011920929,
                -1,
                -1.5
            ],
            "type" : "VEC3"
        },
        {
            "bufferView" : 1,
            "componentType" : 5126,
            "count" : 20,
            "type" : "VEC3"
        },
        {
            "bufferView" : 2,
            "componentType" : 5126,
            "count" : 20,
            "type" : "VEC2"
        },
        {
            "bufferView" : 3,
            "componentType" : 5123,
            "count" : 30,
            "type" : "SCALAR"
        },
        {
            "bufferView" : 4,
            "componentType" : 5126,
            "count" : 24,
            "max" : [
                1,
                1,
                1
            ],
            "min" : [
                -1,
                -1,
                -1
            ],
            "type" : "VEC3"
        },
        {
            "bufferView" : 5,
            "componentType" : 5126,
            "count" : 24,
            "type" : "VEC3"
        },
        {
            "bufferView" : 6,
            "componentType" : 5126,
            "count" : 24,
            "type" : "VEC2"
        },
        {
            "bufferView" : 7,
            "componentType" : 5123,
            "count" : 36,
            "type" : "SCALAR"
        },
        {
            "bufferView" : 8,
            "componentType" : 5126,
            "count" : 288,
            "max" : [
                1,
                1,
                1
            ],
            "min" : [
                -1,
                -1,
                -1
            ],
            "type" : "VEC3"
        },
        {
            "bufferView" : 9,
            "componentType" : 5126,
            "count" : 288,
            "type" : "VEC3"
        },
        {
            "bufferView" : 10,
            "componentType" : 5126,
            "count" : 288,
            "type" : "VEC2"
        },
        {
            "bufferView" : 11,
            "componentType" : 5123,
            "count" : 564,
            "type" : "SCALAR"
        },
        {
            "bufferView" : 12,
            "componentType" : 5126,
            "count" : 288,
            "max" : [
                1,
                1,
                1
            ],
            "min" : [
                -1,
                -1,
                -1
            ],
            "type" : "VEC3"
        },
        {
            "bufferView" : 13,
            "componentType" : 5126,
            "count" : 288,
            "type" : "VEC3"
        },
        {
            "bufferView" : 14,
            "componentType" : 5126,
            "count" : 288,
            "type" : "VEC2"
        },
        {
            "bufferView" : 15,
            "componentType" : 5126,
            "count" : 288,
            "max" : [
                1,
                1,
                1
            ],
            "min" : [
                -1,
                -1,
                -1
            ],
            "type" : "VEC3"
        },
        {
            "bufferView" : 16,
            "componentType" : 5126,
            "count" : 288,
            "type" : "VEC3"
        },
        {
            "bufferView" : 17,
            "componentType" : 5126,
            "count" : 288,
            "type" : "VEC2"
        },
        {
            "bufferView" : 18,
            "componentType" : 5126,
            "count" : 24,
            "max" : [
                1,
                1,
                1
            ],
            "min" : [
                -1,
                -1,
                -1
            ],
            "type" : "VEC3"
        },
        {
            "bufferView" : 19,
            "componentType" : 5126,
            "count" : 24,
            "type" : "VEC3"
        },
        {
            "bufferView" : 20,
            "componentType" : 5126,
            "count" : 24,
            "type" : "VEC2"
        },
        {
            "bufferView" : 21,
            "componentType" : 5126,
            "count" : 24,
            "max" : [
                1,
                1,
                1
            ],
            "min" : [
                -1,
                -1,
                -1
            ],
            "type" : "VEC3"
        },
        {
            "bufferView" : 22,
            "componentType" : 5126,
            "count" : 24,
            "type" : "VEC3"
        },
        {
            "bufferView" : 23,
            "componentType" : 5126,
            "count" : 24,
            "type" : "VEC2"
        }
    ],
    "bufferViews" : [
        {
            "buffer" : 0,
            "byteLength" : 240,
            "byteOffset" : 0
        },
        {
            "buffer" : 0,
            "byteLength" : 240,
            "byteOffset" : 240
        },
        {
            "buffer" : 0,
            "byteLength" : 160,
            "byteOffset" : 480
        },
        {
            "buffer" : 0,
            "byteLength" : 60,
            "byteOffset" : 640
        },
        {
            "buffer" : 0,
            "byteLength" : 288,
            "byteOffset" : 700
        },
        {
            "buffer" : 0,
            "byteLength" : 288,
            "byteOffset" : 988
        },
        {
            "buffer" : 0,
            "byteLength" : 192,
            "byteOffset" : 1276
        },
        {
            "buffer" : 0,
            "byteLength" : 72,
            "byteOffset" : 1468
        },
        {
            "buffer" : 0,
            "byteLength" : 3456,
            "byteOffset" : 1540
        },
        {
            "buffer" : 0,
            "byteLength" : 3456,
            "byteOffset" : 4996
        },
        {
            "buffer" : 0,
            "byteLength" : 2304,
            "byteOffset" : 8452
        },
        {
            "buffer" : 0,
            "byteLength" : 1128,
            "byteOffset" : 10756
        },
        {
            "buffer" : 0,
            "byteLength" : 3456,
            "byteOffset" : 11884
        },
        {
            "buffer" : 0,
            "byteLength" : 3456,
            "byteOffset" : 15340
        },
        {
            "buffer" : 0,
            "byteLength" : 2304,
            "byteOffset" : 18796
        },
        {
            "buffer" : 0,
            "byteLength" : 3456,
            "byteOffset" : 21100
        },
        {
            "buffer" : 0,
            "byteLength" : 3456,
            "byteOffset" : 24556
        },
        {
            "buffer" : 0,
            "byteLength" : 2304,
            "byteOffset" : 28012
        },
        {
            "buffer" : 0,
            "byteLength" : 288,
            "byteOffset" : 30316
        },
        {
            "buffer" : 0,
            "byteLength" : 288,
            "byteOffset" : 30604
        },
        {
            "buffer" : 0,
            "byteLength" : 192,
            "byteOffset" : 30892
        },
        {
            "buffer" : 0,
            "byteLength" : 288,
            "byteOffset" : 31084
        },
        {
            "buffer" : 0,
            "byteLength" : 288,
            "byteOffset" : 31372
        },
        {
            "buffer" : 0,
            "byteLength" : 192,
            "byteOffset" : 31660
        }
    ],
    "buffers" : [
        {
            "byteLength" : 31852,
            "uri" : "data:application/octet-stream;base64,"
        }
    ]
}
